# xmcd CD database file
#
# Track frame offsets:
#	187
#	28112
#	56895
#	89842
#	116095
#	180117
#	214730
#	225702
#	242810
#	265257
#
# Disc length: 3823 seconds
#
# Revision: 0
# Processed by: cddbd v1.5PL3 Copyright (c) Steve Scherf et al.
# Submitted via: CDex 1.51
#
DISCID=8d0eed0a
DTITLE=Various Artist - Monochrome disc 10
DYEAR=1960
DGENRE=Jazz
TTITLE0=Rock Candy - Jack McDuff
TTITLE1=Boogalooin' - Charles Kynard
TTITLE2=Zoo Boogaloo - Rusty Bryant
TTITLE3=Soul Power - Richard "Groove" Holmes
TTITLE4=Mucho Mucho - Shirlye Scott and The Latin Jazz Quintet
TTITLE5=La Bamba - Dave Pike and Ray Baretto
TTITLE6=Mamblues - Cal Tjader's Modern Mambo Quintet
TTITLE7=Cantelope Island - Pucho and The Latin Soul Brothers
TTITLE8=Oara Tu - Mongo Santamaria
TTITLE9=Milestones - Latin Jazz Quintet
EXTD=YEAR: 1960
EXTT0=
EXTT1=
EXTT2=
EXTT3=
EXTT4=
EXTT5=
EXTT6=
EXTT7=
EXTT8=
EXTT9=
PLAYORDER=
